<svg width="33" height="34" viewBox="0 0 33 34" fill="none" xmlns="http://www.w3.org/2000/svg">
<path d="M0 1.125C0 0.826631 0.112435 0.540483 0.312571 0.329505C0.512707 0.118526 0.784149 0 1.06718 0H4.26874C4.50678 6.93258e-05 4.73798 0.084039 4.92555 0.238556C5.11312 0.393072 5.2463 0.609264 5.3039 0.85275L6.16832 4.5H30.9483C31.105 4.50015 31.2598 4.53668 31.4016 4.60699C31.5434 4.6773 31.6687 4.77966 31.7688 4.90681C31.8688 5.03396 31.941 5.18276 31.9804 5.34266C32.0197 5.50257 32.0251 5.66963 31.9963 5.832L28.7948 23.832C28.749 24.0898 28.6192 24.3226 28.4278 24.4903C28.2365 24.6579 27.9956 24.7498 27.7468 24.75H8.53747C8.28867 24.7498 8.04777 24.6579 7.85642 24.4903C7.66506 24.3226 7.53528 24.0898 7.4895 23.832L4.29008 5.86575L3.43633 2.25H1.06718C0.784149 2.25 0.512707 2.13147 0.312571 1.9205C0.112435 1.70952 0 1.42337 0 1.125ZM6.62081 6.75L9.42323 22.5H26.861L29.6634 6.75H6.62081ZM10.6718 24.75C9.5397 24.75 8.45393 25.2241 7.65339 26.068C6.85284 26.9119 6.4031 28.0565 6.4031 29.25C6.4031 30.4435 6.85284 31.5881 7.65339 32.432C8.45393 33.2759 9.5397 33.75 10.6718 33.75C11.804 33.75 12.8897 33.2759 13.6903 32.432C14.4908 31.5881 14.9406 30.4435 14.9406 29.25C14.9406 28.0565 14.4908 26.9119 13.6903 26.068C12.8897 25.2241 11.804 24.75 10.6718 24.75ZM25.6124 24.75C24.4803 24.75 23.3945 25.2241 22.594 26.068C21.7934 26.9119 21.3437 28.0565 21.3437 29.25C21.3437 30.4435 21.7934 31.5881 22.594 32.432C23.3945 33.2759 24.4803 33.75 25.6124 33.75C26.7446 33.75 27.8303 33.2759 28.6309 32.432C29.4314 31.5881 29.8811 30.4435 29.8811 29.25C29.8811 28.0565 29.4314 26.9119 28.6309 26.068C27.8303 25.2241 26.7446 24.75 25.6124 24.75ZM10.6718 27C11.2379 27 11.7808 27.2371 12.1811 27.659C12.5813 28.081 12.8062 28.6533 12.8062 29.25C12.8062 29.8467 12.5813 30.419 12.1811 30.841C11.7808 31.2629 11.2379 31.5 10.6718 31.5C10.1058 31.5 9.56288 31.2629 9.16261 30.841C8.76234 30.419 8.53747 29.8467 8.53747 29.25C8.53747 28.6533 8.76234 28.081 9.16261 27.659C9.56288 27.2371 10.1058 27 10.6718 27ZM25.6124 27C26.1785 27 26.7214 27.2371 27.1216 27.659C27.5219 28.081 27.7468 28.6533 27.7468 29.25C27.7468 29.8467 27.5219 30.419 27.1216 30.841C26.7214 31.2629 26.1785 31.5 25.6124 31.5C25.0463 31.5 24.5035 31.2629 24.1032 30.841C23.7029 30.419 23.478 29.8467 23.478 29.25C23.478 28.6533 23.7029 28.081 24.1032 27.659C24.5035 27.2371 25.0463 27 25.6124 27Z" fill="#595959"/>
</svg>
