<svg width="33" height="31" viewBox="0 0 33 31" fill="none" xmlns="http://www.w3.org/2000/svg">
<path d="M31.9754 7.00093C31.7895 6.20563 31.5026 5.44273 31.123 4.73449C30.7584 3.99771 30.2922 3.32671 29.7408 2.74505C28.9414 1.87407 27.9947 1.18129 26.9534 0.70526C24.8575 -0.235087 22.5071 -0.235087 20.4111 0.70526C19.427 1.16066 18.5227 1.79975 17.7389 2.59396L17.6238 2.74505L16.1264 4.38193L14.629 2.74505L14.5139 2.59396C13.7301 1.79975 12.8258 1.16066 11.8417 0.70526C9.74571 -0.235087 7.39529 -0.235087 5.29935 0.70526C4.25807 1.18129 3.31138 1.87407 2.51196 2.74505C1.41857 3.90807 0.644574 5.38223 0.277442 7.00093C0.0821292 7.82294 -0.0108544 8.67 0.00100686 9.51919C0.00100686 10.3175 0.093152 11.1133 0.277442 11.8864C0.470564 12.6671 0.749004 13.4196 1.10675 14.1276C1.4931 14.8554 1.96558 15.5243 2.51196 16.117L16.1264 31L29.7408 16.117C30.2868 15.5303 30.7544 14.8579 31.123 14.1276C31.8712 12.7302 32.2611 11.1383 32.2518 9.51919C32.2637 8.66999 32.1707 7.82292 31.9754 7.00093ZM29.6717 11.1057C29.3958 12.2563 28.8476 13.3073 28.0822 14.1528L16.0803 27.2478L4.07843 14.1528C3.68732 13.7222 3.34683 13.24 3.06483 12.7174C2.79947 12.2003 2.59071 11.6509 2.44285 11.0805C2.32481 10.5102 2.26303 9.92765 2.25856 9.34291C2.26169 8.74146 2.32346 8.14208 2.44285 7.55494C2.58637 6.98289 2.79535 6.43292 3.06483 5.91807C3.34127 5.38923 3.6822 4.91076 4.07843 4.48266C4.67022 3.84439 5.36545 3.33202 6.12866 2.9717C7.66659 2.29913 9.38227 2.29913 10.9202 2.9717C11.6804 3.3167 12.3669 3.82287 12.9474 4.45748L16.0803 7.9075L19.2133 4.45748C19.7934 3.82175 20.4822 3.31691 21.2404 2.9717C22.7784 2.29913 24.4941 2.29913 26.032 2.9717C26.7945 3.33181 27.4902 3.84554 28.0822 4.48266C28.4831 4.89817 28.8194 5.38168 29.0728 5.91807C29.6064 6.94669 29.8843 8.11007 29.8791 9.29255C29.9104 9.90102 29.8639 10.5113 29.7408 11.1057H29.6717Z" fill="#595959"/>
</svg>
