<svg width="88" height="88" viewBox="0 0 88 88" fill="none" xmlns="http://www.w3.org/2000/svg">
<g filter="url(#filter0_d)">
<circle cx="44" cy="42" r="38" fill="white"/>
</g>
<path d="M43.5 50C48.7467 50 53 46.1944 53 41.5C53 36.8056 48.7467 33 43.5 33C38.2533 33 34 36.8056 34 41.5C34 46.1944 38.2533 50 43.5 50Z" fill="#6680CA"/>
<path d="M46.4 24.4483V20H41.6V24.4483C37.3767 24.9314 33.4519 26.6568 30.4414 29.3537C27.4308 32.0507 25.5048 35.5666 24.9656 39.35H20V43.65H24.9656C25.504 47.4336 27.4298 50.95 30.4405 53.6471C33.4512 56.3442 37.3764 58.0693 41.6 58.5517V63H46.4V58.5517C50.6238 58.0696 54.5492 56.3446 57.56 53.6475C60.5708 50.9503 62.4963 47.4338 63.0344 43.65H68V39.35H63.0344C62.496 35.5664 60.5702 32.05 57.5595 29.3529C54.5488 26.6558 50.6236 24.9307 46.4 24.4483ZM44 54.4C36.0584 54.4 29.6 48.6144 29.6 41.5C29.6 34.3857 36.0584 28.6 44 28.6C51.9416 28.6 58.4 34.3857 58.4 41.5C58.4 48.6144 51.9416 54.4 44 54.4Z" fill="#6680CA"/>
<defs>
<filter id="filter0_d" x="0" y="0" width="88" height="88" filterUnits="userSpaceOnUse" color-interpolation-filters="sRGB">
<feFlood flood-opacity="0" result="BackgroundImageFix"/>
<feColorMatrix in="SourceAlpha" type="matrix" values="0 0 0 0 0 0 0 0 0 0 0 0 0 0 0 0 0 0 127 0"/>
<feMorphology radius="2" operator="dilate" in="SourceAlpha" result="effect1_dropShadow"/>
<feOffset dy="2"/>
<feGaussianBlur stdDeviation="2"/>
<feColorMatrix type="matrix" values="0 0 0 0 0.340191 0 0 0 0 0.340191 0 0 0 0 0.340191 0 0 0 0.25 0"/>
<feBlend mode="normal" in2="BackgroundImageFix" result="effect1_dropShadow"/>
<feBlend mode="normal" in="SourceGraphic" in2="effect1_dropShadow" result="shape"/>
</filter>
</defs>
</svg>
