<svg width="88" height="88" viewBox="0 0 88 88" fill="none" xmlns="http://www.w3.org/2000/svg">
<g filter="url(#filter0_d)">
<circle cx="44" cy="42" r="38" fill="white"/>
</g>
<path d="M68.228 20.8171C68.0845 20.5061 67.8086 20.2552 67.4578 20.1166C67.1071 19.978 66.7084 19.9624 66.3447 20.073C65.9811 20.1836 65.6805 20.412 65.5054 20.7106C65.3304 21.0092 65.2943 21.355 65.4049 21.6761C67.7035 27.4239 63.1409 31.7164 59.6621 34.0156L58.2567 32.2632C57.7842 31.6755 56.7277 31.1869 55.9062 31.1783L48.0183 31.2084C47.0547 31.2337 46.1169 31.4851 45.304 31.936L22.0608 46.1161C21.5202 46.4471 21.1523 46.9511 21.0378 47.5175C20.9233 48.084 21.0714 48.6669 21.4497 49.1386L32.0123 62.2875C32.8041 63.267 34.0684 63.1486 35.1967 62.464L58.4398 48.2818C59.1079 47.8706 59.8799 46.9837 60.152 46.3056L62.6213 39.5352C62.8935 38.8592 62.7277 37.8281 62.2551 37.2404L61.3991 36.1726C66.0704 33.0576 70.92 27.553 68.228 20.8171ZM57.413 40.9625C56.9848 41.2233 56.5018 41.4081 55.9914 41.5064C55.4811 41.6047 54.9535 41.6145 54.4388 41.5353C53.9241 41.4562 53.4324 41.2895 52.9918 41.045C52.5511 40.8004 52.1702 40.4827 51.8707 40.11C51.2643 39.3558 51.0267 38.4231 51.2099 37.5166C51.3931 36.6101 51.9823 35.8039 52.848 35.2749C53.5267 34.8612 54.337 34.6423 55.1657 34.6489C55.9944 34.6555 56.8 34.8871 57.4699 35.3115C56.7969 35.6646 56.3342 35.8712 56.2476 35.9035C55.9409 36.0308 55.693 36.2449 55.5444 36.5108C55.3959 36.7766 55.3556 37.0786 55.43 37.367C55.5045 37.6555 55.6894 37.9133 55.9543 38.0984C56.2193 38.2835 56.5487 38.3848 56.8885 38.3856C57.1013 38.3856 57.319 38.3426 57.5244 38.2586C58.0044 38.0606 58.519 37.8259 59.0559 37.5482C59.1794 38.1942 59.0908 38.8573 58.8001 39.4614C58.5094 40.0654 58.0286 40.5857 57.413 40.9625Z" fill="#6680CA"/>
<defs>
<filter id="filter0_d" x="0" y="0" width="88" height="88" filterUnits="userSpaceOnUse" color-interpolation-filters="sRGB">
<feFlood flood-opacity="0" result="BackgroundImageFix"/>
<feColorMatrix in="SourceAlpha" type="matrix" values="0 0 0 0 0 0 0 0 0 0 0 0 0 0 0 0 0 0 127 0"/>
<feMorphology radius="2" operator="dilate" in="SourceAlpha" result="effect1_dropShadow"/>
<feOffset dy="2"/>
<feGaussianBlur stdDeviation="2"/>
<feColorMatrix type="matrix" values="0 0 0 0 0.340191 0 0 0 0 0.340191 0 0 0 0 0.340191 0 0 0 0.25 0"/>
<feBlend mode="normal" in2="BackgroundImageFix" result="effect1_dropShadow"/>
<feBlend mode="normal" in="SourceGraphic" in2="effect1_dropShadow" result="shape"/>
</filter>
</defs>
</svg>
