<svg width="156" height="47" viewBox="0 0 156 47" fill="none" xmlns="http://www.w3.org/2000/svg">
<rect x="2.46796" y="6.96179" width="154.05" height="23.05" transform="rotate(6.14639 2.46796 6.96179)" fill="#6680CA"/>
<path d="M14.15 39V10.92H31.16V14.61H18.245V22.035H28.685V25.725H18.245V39H14.15ZM40.16 39V10.965H48.89C52.25 10.965 54.695 11.715 56.225 13.215C57.785 14.685 58.565 16.65 58.565 19.11C58.565 20.16 58.34 21.21 57.89 22.26C57.44 23.28 56.81 24.195 56 25.005C55.19 25.785 54.23 26.355 53.12 26.715L59.33 39H54.605L48.71 27.12H44.705V39H40.16ZM44.705 23.385H49.205C50.825 23.385 52.025 23.01 52.805 22.26C53.615 21.48 54.02 20.46 54.02 19.2C54.02 18.03 53.615 17.025 52.805 16.185C52.025 15.315 50.825 14.88 49.205 14.88H44.705V23.385ZM66.845 10.965H71.39L81.695 30.225L81.515 10.965H85.97V11.37C85.79 11.55 85.67 11.745 85.61 11.955C85.58 12.165 85.565 12.525 85.565 13.035V39H81.605L70.895 18.57V39H66.845V10.965ZM100.82 39V14.745H93.17V10.92H113.195V14.745H105.185V39H100.82ZM121.16 39V10.965H129.89C133.25 10.965 135.695 11.715 137.225 13.215C138.785 14.685 139.565 16.65 139.565 19.11C139.565 20.16 139.34 21.21 138.89 22.26C138.44 23.28 137.81 24.195 137 25.005C136.19 25.785 135.23 26.355 134.12 26.715L140.33 39H135.605L129.71 27.12H125.705V39H121.16ZM125.705 23.385H130.205C131.825 23.385 133.025 23.01 133.805 22.26C134.615 21.48 135.02 20.46 135.02 19.2C135.02 18.03 134.615 17.025 133.805 16.185C133.025 15.315 131.825 14.88 130.205 14.88H125.705V23.385Z" fill="#232323"/>
</svg>
