<svg width="22" height="21" viewBox="0 0 22 21" fill="none" xmlns="http://www.w3.org/2000/svg">
<path d="M10.9994 0C4.92388 0 0 4.70111 0 10.4995C0 14.9473 2.89905 18.7498 6.99164 20.2801C6.89475 19.4498 6.80887 18.1718 7.02908 17.2658C7.22947 16.446 8.3195 12.0465 8.3195 12.0465C8.3195 12.0465 7.99029 11.417 7.99029 10.4869C7.99029 9.02807 8.87663 7.93819 9.98098 7.93819C10.9202 7.93819 11.3727 8.61083 11.3727 9.41694C11.3727 10.3187 10.7715 11.665 10.4621 12.9136C10.2034 13.9583 11.0116 14.8107 12.0906 14.8107C14.0449 14.8107 15.549 12.8432 15.549 10.0023C15.549 7.48836 13.6563 5.73109 10.9543 5.73109C7.82403 5.73109 5.98639 7.97182 5.98639 10.2872C5.98639 11.1889 6.35083 12.1569 6.80556 12.6834C6.84421 12.7231 6.8715 12.7716 6.8848 12.8242C6.89811 12.8769 6.89699 12.9319 6.88154 12.984C6.79786 13.3151 6.61178 14.0287 6.57655 14.1748C6.5281 14.3671 6.4169 14.4081 6.2077 14.3156C4.83469 13.705 3.97588 11.788 3.97588 10.2472C3.97588 6.93554 6.49617 3.89395 11.2439 3.89395C15.0601 3.89395 18.0252 6.48886 18.0252 9.95821C18.0252 13.5778 15.6349 16.4881 12.3174 16.4881C11.202 16.4881 10.1549 15.9363 9.79601 15.2836L9.11005 17.7787C8.86232 18.691 8.19178 19.8344 7.74366 20.5323C8.79858 20.8432 9.89649 21.0008 11.0006 21C17.075 21 22 16.2989 22 10.5005C22 4.70217 17.0739 0 10.9994 0Z" fill="#6680CA"/>
</svg>
