<svg width="33" height="32" viewBox="0 0 33 32" fill="none" xmlns="http://www.w3.org/2000/svg">
<path d="M13.7928 27.368C16.8531 27.3673 19.8251 26.351 22.2358 24.4807L29.8149 32L32.2528 29.5814L24.6736 22.062C26.5598 19.6702 27.5849 16.7209 27.5857 13.684C27.5857 6.13898 21.3978 0 13.7928 0C6.18781 0 0 6.13898 0 13.684C0 21.229 6.18781 27.368 13.7928 27.368ZM13.7928 3.421C19.4979 3.421 24.1374 8.02395 24.1374 13.684C24.1374 19.344 19.4979 23.947 13.7928 23.947C8.08777 23.947 3.44821 19.344 3.44821 13.684C3.44821 8.02395 8.08777 3.421 13.7928 3.421Z" fill="#595959"/>
</svg>
