<svg width="23" height="20" viewBox="0 0 23 20" fill="none" xmlns="http://www.w3.org/2000/svg">
<path d="M7.22487 20C15.9045 20 20.6526 12.3035 20.6526 5.64077C20.6526 5.42539 20.6526 5.20694 20.6439 4.99157C21.5683 4.27543 22.3661 3.38881 23 2.37325C22.1365 2.78069 21.2215 3.04922 20.2846 3.17013C21.2715 2.53884 22.0106 1.54555 22.3646 0.374893C21.4374 0.962744 20.4226 1.37541 19.3646 1.59483C18.6533 0.784138 17.712 0.24708 16.6866 0.0668435C15.6612 -0.113393 14.6089 0.0732493 13.6927 0.597861C12.7764 1.12247 12.0474 1.95578 11.6185 2.96869C11.1896 3.98161 11.0848 5.11761 11.3203 6.20074C9.444 6.10005 7.60842 5.57841 5.93262 4.66965C4.25682 3.76089 2.77823 2.48531 1.59275 0.925632C0.990926 2.03801 0.807262 3.35381 1.07905 4.60585C1.35085 5.85788 2.05772 6.95228 3.05612 7.66681C2.30796 7.63961 1.57625 7.42461 0.92 7.03915V7.10838C0.92129 8.27367 1.2985 9.40275 1.98788 10.3048C2.67726 11.2068 3.63651 11.8264 4.7035 12.0589C4.2985 12.1783 3.88014 12.2378 3.46006 12.2358C3.16391 12.2368 2.86836 12.2074 2.57744 12.1481C2.87901 13.1512 3.46621 14.0283 4.25679 14.6564C5.04738 15.2845 6.00176 15.6323 6.98625 15.651C5.3138 17.0568 3.24789 17.8192 1.12125 17.8155C0.746524 17.8172 0.372058 17.7941 0 17.7463C2.15843 19.2189 4.66512 20.0008 7.22487 20Z" fill="#6680CA"/>
</svg>
