<svg width="32" height="34" viewBox="0 0 32 34" fill="none" xmlns="http://www.w3.org/2000/svg">
<path d="M16 0C11.0987 0 7.11111 3.89769 7.11111 8.68857C7.11111 13.4794 11.0987 17.3771 16 17.3771C20.9013 17.3771 24.8889 13.4794 24.8889 8.68857C24.8889 3.89769 20.9013 0 16 0ZM16 13.9017C13.0596 13.9017 10.6667 11.5627 10.6667 8.68857C10.6667 5.81439 13.0596 3.47543 16 3.47543C18.9404 3.47543 21.3333 5.81439 21.3333 8.68857C21.3333 11.5627 18.9404 13.9017 16 13.9017ZM32 33.0166V31.2788C32 24.573 26.416 19.1148 19.5556 19.1148H12.4444C5.58222 19.1148 0 24.573 0 31.2788V33.0166H3.55556V31.2788C3.55556 26.488 7.54311 22.5903 12.4444 22.5903H19.5556C24.4569 22.5903 28.4444 26.488 28.4444 31.2788V33.0166H32Z" fill="#595959"/>
</svg>
